<!DOCTYPE svg PUBLIC "-//W3C//DTD SVG 20010904//EN" "http://www.w3.org/TR/2001/REC-SVG-20010904/DTD/svg10.dtd">
<svg version="1.0" xmlns="http://www.w3.org/2000/svg" width="450px" height="450px" viewBox="0 0 4500 4500" preserveAspectRatio="xMidYMid meet">
<g id="layerbg1" fill="#191919" stroke="none">
 <path d="M956 3943 c-3 -3 -6 -260 -6 -570 l0 -563 -387 -2 -388 -3 0 -605 0 -605 940 -3 940 -2 759 -575 c417 -316 763 -572 767 -569 5 3 9 261 9 574 l0 570 393 2 392 3 0 605 0 605 -955 5 -955 5 -740 560 c-407 309 -745 564 -751 568 -6 3 -14 4 -18 0z"/>
 </g>
<g id="layer101" fill="#191919" stroke="none">
 <path d="M960 3371 l0 -571 -390 0 -390 0 0 -600 0 -600 938 0 937 0 760 -576 760 -575 3 576 2 575 395 0 395 0 0 600 0 600 -949 0 -948 0 -744 563 c-409 309 -750 566 -756 570 -10 7 -13 -108 -13 -562z"/>
 </g>

</svg>